<svg version="1.2" xmlns="http://www.w3.org/2000/svg" viewBox="0 0 40 40" width="40" height="40">
	<title>down arrow-svg</title>
	<style>
		.s0 { fill: rgba(235, 230, 208, 1) } 
	</style>
	<path id="Layer" fill-rule="evenodd" class="s0" d="m40 20c0 11-9 20-20 20-11 0-20-9-20-20 0-11 9-20 20-20 11 0 20 9 20 20zm-12.9-0.1c-0.6-0.5-1.6-0.5-2.2 0l-3.4 3.5v-10.4c0-0.8-0.7-1.5-1.5-1.5-0.8 0-1.5 0.7-1.5 1.5v10.4l-3.4-3.5c-0.6-0.5-1.6-0.5-2.2 0-0.5 0.6-0.5 1.6 0 2.2l6 6c0.3 0.3 0.7 0.4 1.1 0.4 0.4 0 0.8-0.1 1.1-0.4l6-6c0.5-0.6 0.5-1.6 0-2.2z"/>
</svg>