<svg width="167" height="167" viewBox="0 0 167 167" fill="none" xmlns="http://www.w3.org/2000/svg">
<path fill-rule="evenodd" clip-rule="evenodd" d="M11.8007 21.2331C18.6282 13.381 32.3523 10.6904 51.3899 15.5934C58.3438 17.3843 65.7473 20.1396 73.3575 23.8121C63.7368 31.1445 54.1975 40.0562 45.2637 50.3307C36.3304 60.6047 28.8307 71.2889 22.9061 81.8343C18.2121 74.8082 14.4551 67.8594 11.7155 61.2218C4.21535 43.05 4.97323 29.0852 11.8007 21.2331ZM19.7147 87.7987C0.237496 59.91 -5.65958 32.1696 7.27297 17.2962C20.2056 2.4227 48.4965 4.40894 78.8208 19.8232C106.709 0.34624 134.449 -5.55068 149.323 7.38179C164.196 20.3143 162.21 48.6046 146.796 78.9285C166.274 106.817 172.171 134.558 159.238 149.432C146.306 164.305 118.015 162.319 87.691 146.905C59.8019 166.383 32.0609 172.28 17.1873 159.347C2.31375 146.415 4.30015 118.123 19.7147 87.7987ZM81.7266 143.713C74.7001 148.408 67.7509 152.165 61.113 154.905C42.9412 162.405 28.9764 161.647 21.1243 154.82C13.2721 147.992 10.5816 134.268 15.4846 115.23C17.2756 108.276 20.031 100.872 23.7037 93.262C31.036 102.883 39.9475 112.422 50.2219 121.355C60.4962 130.289 71.1808 137.789 81.7266 143.713ZM87.2004 139.877C76.2445 133.98 64.9975 126.252 54.1588 116.828C43.32 107.403 34.1042 97.3388 26.7428 87.3082C32.6393 76.3526 40.3674 65.106 49.7914 54.2676C59.216 43.4287 69.2805 34.2127 79.3113 26.8512C90.2672 32.7478 101.514 40.476 112.353 49.9003C123.191 59.3245 132.407 69.3887 139.768 79.4191C133.872 90.3753 126.143 101.623 116.719 112.461C107.295 123.3 97.2307 132.515 87.2004 139.877ZM93.1542 142.916C100.764 146.588 108.168 149.343 115.122 151.134C134.159 156.037 147.883 153.347 154.711 145.495C161.538 137.643 162.296 123.678 154.796 105.506C152.056 98.8682 148.299 91.9192 143.605 84.893C137.68 95.439 130.18 106.124 121.246 116.398C112.313 126.672 102.774 135.584 93.1542 142.916ZM142.807 73.4653C146.48 65.8554 149.235 58.4523 151.026 51.4987C155.929 32.4611 153.238 18.737 145.386 11.9095C137.534 5.08205 123.569 4.32417 105.397 11.8243C98.7597 14.5638 91.8111 18.3207 84.7852 23.0145C95.3309 28.9392 106.015 36.439 116.29 45.3725C126.564 54.306 135.475 63.8449 142.807 73.4653ZM80.2179 44.3253L82.6461 66.0712C83.8083 76.4793 90.0812 85.6235 99.373 90.4546L118.787 100.548L98.7402 91.7784C89.1455 87.5808 78.0899 88.4412 69.2601 94.0726L50.8117 105.839L68.4301 92.8627C76.8627 86.6522 81.6453 76.6476 81.1833 66.1851L80.2179 44.3253Z" fill="#EBE6D0"/>
</svg>
