<svg width="167" height="167" viewBox="0 0 167 167" fill="none" xmlns="http://www.w3.org/2000/svg">
<path fill-rule="evenodd" clip-rule="evenodd" d="M11.8984 21.2001C18.7259 13.348 32.45 10.6574 51.4875 15.5604C58.4414 17.3513 65.845 20.1066 73.4552 23.7791C63.8344 31.1115 54.2951 40.0231 45.3613 50.2977C36.428 60.5716 28.9284 71.2558 23.0038 81.8013C18.3097 74.7752 14.5527 67.8264 11.8132 61.1888C4.31301 43.017 5.07089 29.0522 11.8984 21.2001ZM19.8124 87.7657C0.335152 59.877 -5.56193 32.1365 7.37063 17.2632C20.3032 2.38969 48.5941 4.37593 78.9184 19.7902C106.807 0.313227 134.547 -5.58369 149.42 7.34878C164.294 20.2812 162.308 48.5716 146.894 78.8955C166.372 106.784 172.269 134.525 159.336 149.399C146.404 164.272 118.113 162.286 87.7887 146.872C59.8996 166.35 32.1586 172.247 17.285 159.314C2.4114 146.382 4.3978 118.09 19.8124 87.7657ZM81.8243 143.68C74.7978 148.375 67.8486 152.132 61.2106 154.872C43.0388 162.372 29.0741 161.614 21.2219 154.787C13.3698 147.959 10.6793 134.235 15.5822 115.197C17.3732 108.243 20.1286 100.839 23.8014 93.2289C31.1337 102.849 40.0452 112.389 50.3195 121.322C60.5938 130.256 71.2784 137.756 81.8243 143.68ZM87.2981 139.844C76.3421 133.947 65.0952 126.219 54.2565 116.795C43.4177 107.37 34.2019 97.3058 26.8405 87.2752C32.7369 76.3196 40.465 65.073 49.8891 54.2346C59.3137 43.3957 69.3782 34.1797 79.409 26.8182C90.3648 32.7147 101.612 40.443 112.45 49.8673C123.289 59.2915 132.505 69.3557 139.866 79.3861C133.969 90.3423 126.241 101.59 116.816 112.428C107.392 123.267 97.3283 132.482 87.2981 139.844ZM93.2519 142.883C100.862 146.555 108.265 149.31 115.219 151.101C134.257 156.004 147.981 153.314 154.808 145.462C161.636 137.61 162.394 123.645 154.894 105.473C152.154 98.8352 148.397 91.8862 143.703 84.8599C137.778 95.406 130.278 106.091 121.344 116.365C112.411 126.639 102.872 135.551 93.2519 142.883ZM142.905 73.4323C146.577 65.8224 149.332 58.4193 151.123 51.4657C156.026 32.4281 153.336 18.704 145.484 11.8765C137.631 5.04904 123.667 4.29116 105.495 11.7913C98.8574 14.5308 91.9088 18.2877 84.8829 22.9815C95.4286 28.9062 106.113 36.406 116.387 45.3395C126.661 54.273 135.573 63.8119 142.905 73.4323ZM80.3156 44.2923L81.219 52.8427C82.9711 69.4248 97.3745 81.7482 114.028 80.9138L122.615 80.4835L114.065 81.387C97.4827 83.1391 85.1594 97.5425 85.9938 114.196L86.424 122.783L85.5206 114.233C83.7685 97.6507 69.3651 85.3273 52.7116 86.1617L44.1244 86.592L52.6748 85.6885C69.2569 83.9364 81.5802 69.533 80.7458 52.8796L80.3156 44.2923Z" fill="#EBE6D0"/>
</svg>
