<svg width="48" height="40" viewBox="0 0 48 40" fill="none" xmlns="http://www.w3.org/2000/svg">
<path d="M43.0658 10.2235C43.0963 10.6497 43.0963 11.0762 43.0963 11.5027C43.0963 24.5076 33.198 39.4925 15.1066 39.4925C9.53304 39.4925 4.35528 37.8782 0 35.0762C0.792 35.1677 1.55328 35.1981 2.37552 35.1981C6.97464 35.1981 11.208 33.6449 14.5889 30.995C10.2638 30.9036 6.6396 28.0711 5.39088 24.1728C6 24.264 6.60912 24.3249 7.24872 24.3249C8.13192 24.3249 9.01536 24.203 9.8376 23.9899C5.32992 23.0762 1.94904 19.1169 1.94904 14.3352V14.2133C3.25872 14.9443 4.78176 15.4013 6.39576 15.462C3.74616 13.6956 2.01 10.6802 2.01 7.26909C2.01 5.44173 2.4972 3.76653 3.35016 2.30469C8.19288 8.27421 15.4721 12.1725 23.6345 12.599C23.4821 11.8682 23.3906 11.1067 23.3906 10.3454C23.3906 4.92405 27.7766 0.507812 33.2282 0.507812C36.0607 0.507812 38.6191 1.69557 40.416 3.61437C42.6394 3.18789 44.7713 2.36565 46.6598 1.23861C45.9288 3.52293 44.3755 5.44174 42.3348 6.65998C44.3146 6.44686 46.2334 5.89845 47.9998 5.13717C46.6598 7.08645 44.9846 8.82237 43.0658 10.2235Z" fill="#EBE6D0"/>
</svg>
